<svg xmlns="http://www.w3.org/2000/svg" viewBox="0 0 206.22 242"><defs><style>.cls-1{fill:#407470;}</style></defs><g id="Capa_2" data-name="Capa 2"><g id="Capa_1-2" data-name="Capa 1"><path class="cls-1" d="M44.45,189.8V205H5.65v-2.67l3.75-.08V156.51l-3.75-.08v-2.68h24.8v2.68l-8.34.08v45.61a145.84,145.84,0,0,0,19.2-8.42l.16-3.83Z"/><path class="cls-1" d="M96.18,153.75v2.68l-3.75.08V205H90l-9.79-6.42a21.8,21.8,0,0,1-6.81,5.51A18,18,0,0,1,65,206.17q-8,0-12.32-5t-4.37-15.69V156.51l-3.75-.08v-2.68H65v2.68l-3.75.08v27q0,7,2.9,10.52a9.81,9.81,0,0,0,8,3.49,15.85,15.85,0,0,0,7.58-1.76V156.51L76,156.43v-2.68Z"/><polygon class="cls-1" points="151.74 153.75 151.74 156.43 147.99 156.51 146 204.95 136.74 205.03 109.11 161.56 112.02 202.27 116.54 202.35 116.54 205.03 100.93 205.03 100.93 202.35 104.68 202.27 105.98 156.51 102.23 156.43 102.23 153.75 121.13 153.75 143.4 188.27 141.41 156.51 136.89 156.43 136.89 153.75 151.74 153.75"/><path class="cls-1" d="M179.67,186.89l-6.73-23.95-4.82,23.95Zm23.65,15.46V205h-23v-2.67l3.75-.08-3.51-12.55h-13L165,202.27l3.9.08V205H151.59v-2.67l3.75-.08,17.14-47.91,9.49-1.3,17.6,49.21Z"/><polygon class="cls-1" points="27.77 228.47 27.77 226.99 38.46 226.99 38.46 228.47 33.95 228.47 33.95 241.79 32.32 241.79 32.32 228.47 27.77 228.47"/><path class="cls-1" d="M52.78,237.34q0,3.21,3.47,3.21a4.16,4.16,0,0,0,2.7-.76,3,3,0,0,0,.91-2.45V227h1.63V237.3a4.45,4.45,0,0,1-1.32,3.59A5.89,5.89,0,0,1,56.29,242a5.79,5.79,0,0,1-3.86-1.11,4.5,4.5,0,0,1-1.29-3.59V227h1.64Z"/><path class="cls-1" d="M81.2,234.67q3,0,3-3.11t-3-3.12H77.35v6.23Zm-3.85,1.45v5.67H75.7V227h5.48a5.05,5.05,0,0,1,3.54,1.09,4.41,4.41,0,0,1,1.18,3.4q0,3.42-2.71,4.3l2.84,6H84.21l-2.67-5.67Z"/><rect class="cls-1" x="99.56" y="226.99" width="1.65" height="14.8"/><path class="cls-1" d="M119.6,228.21c-2.14,0-3.21.81-3.21,2.42a2.1,2.1,0,0,0,.74,1.85,9.87,9.87,0,0,0,3,1,7.74,7.74,0,0,1,3.2,1.3,3.3,3.3,0,0,1,.94,2.64q0,4.56-4.73,4.56a26.73,26.73,0,0,1-3.91-.36l-.77-.11.17-1.37a36.24,36.24,0,0,0,4.43.39c2.11,0,3.16-1,3.16-3a2,2,0,0,0-.69-1.72,6.91,6.91,0,0,0-2.6-.89,8.72,8.72,0,0,1-3.55-1.37,3.45,3.45,0,0,1-1-2.84q0-4,4.77-4a25.34,25.34,0,0,1,3.74.32l.73.1-.15,1.39a40.6,40.6,0,0,0-4.21-.36"/><polygon class="cls-1" points="137.79 241.79 137.79 226.99 140.76 226.99 144.96 239.5 149.15 226.99 152.12 226.99 152.12 241.79 150.47 241.79 150.47 228.74 150.17 228.74 145.88 241.25 144.04 241.25 139.74 228.74 139.44 228.74 139.44 241.79 137.79 241.79"/><path class="cls-1" d="M167.53,234.45a9.46,9.46,0,0,0,.86,4.67c.57.95,1.67,1.43,3.3,1.43s2.73-.47,3.29-1.39a9.38,9.38,0,0,0,.85-4.66,9.74,9.74,0,0,0-.88-4.77,4.33,4.33,0,0,0-6.55,0,9.75,9.75,0,0,0-.87,4.73m10,.05q0,3.94-1.26,5.73T171.69,242c-2.22,0-3.74-.61-4.59-1.82s-1.26-3.12-1.26-5.72.43-4.53,1.29-5.79,2.37-1.89,4.55-1.89,3.7.62,4.57,1.88,1.29,3.2,1.29,5.84"/><path class="cls-1" d="M169.06,115.8a5.31,5.31,0,0,0-3.9-.8,5.57,5.57,0,0,0-3.23,1.89c-1.65-.39-3.24-.65-4.14-.79l-.51-.09c-2.79-.49-5.55-1.13-8.48-1.81-3.47-.8-7.07-1.64-10.75-2.21a60.09,60.09,0,0,1-11.17-3.26c-2.52-.92-5.12-1.87-7.73-2.55-7.94-2.06-15.85-4-23.5-5.78-12.22-2.93-23.76-5.7-34.89-9l-.63-.19L59,90.92,59,90.73a6.26,6.26,0,0,0-1.5-2,4,4,0,0,0-2.6-1c-.24,0-.48,0-.71,0a9.54,9.54,0,0,0-1.41,0,3.94,3.94,0,0,0-2.65,1.22A5.09,5.09,0,0,0,48.84,93a5.22,5.22,0,0,0,2.25,3.52,5.31,5.31,0,0,0,3.9.8,5.52,5.52,0,0,0,2.51-1.2c8,4,17.28,5.71,23.6,6.69,12.32,1.91,24.37,5.44,36,8.85,14.25,4.18,29,8.5,44,9.71a1.42,1.42,0,0,0,.1.21,6.17,6.17,0,0,0,1.49,2,3.89,3.89,0,0,0,2.61,1l.72,0a10.88,10.88,0,0,0,1.4,0,5.28,5.28,0,0,0,1.06-.22,3.44,3.44,0,0,0,1.59-1,5.11,5.11,0,0,0,1.24-4.17,5.2,5.2,0,0,0-2.25-3.51"/><path class="cls-1" d="M153.21,80.8a2.3,2.3,0,0,0-.84-1.12c-1.32-.83-8.66.63-11.75,1.3-3.91.84-10.72,2.51-12.37,4.23A2.52,2.52,0,0,0,127.5,87a1.79,1.79,0,0,0,.67,1.29c.81.66,1.81.61,3.05-.19a37.33,37.33,0,0,1,6.14-1.33l1.45-.26c-2.49,1.42-5.06,2.88-7.52,4.58-4.3,3-41.77,22.78-54.92,29.06l-.61.28c-1,.46-2.16,1-3,1.49-1.38.82-1.18,1.78-1,2.15.51,1.31,2.87,1.71,4,1.46l.43-.14a90.28,90.28,0,0,0,18.13-8.73c7.77-4.86,17.46-10.21,28.79-15.89,7.71-3.87,15.79-8.07,23.29-13.45a25.12,25.12,0,0,0-2.11,4.95c-.06.48-.23,1.2-.39,1.9-.59,2.53-.91,3.93.21,4.43A4.49,4.49,0,0,0,146,99a5.5,5.5,0,0,0,1.09-.29,4.11,4.11,0,0,0,.83-.49,3.57,3.57,0,0,0,1.13-1.43c.29-.68,4.44-11.66,4.31-15.06a4.26,4.26,0,0,0-.09-.65c0-.07,0-.13-.05-.19Z"/><path class="cls-1" d="M65.82,26.16A79.94,79.94,0,0,1,101.21,9c1.73-.36,3.51-.68,5.29-1a101.36,101.36,0,0,1,23.56-.73A87.68,87.68,0,0,1,141.64,9l2.59.63,1.63.47,3.07,1.3c.51.22,1,.47,1.53.74l.1.05.91.45a66.6,66.6,0,0,1,9.83,6.2,77.18,77.18,0,0,1,8.89,8.09,127.49,127.49,0,0,1,21.31,30c2.51,4.86,5.39,12.37,4.92,20.51,0,.15,0,.55-.09,1.11a61.45,61.45,0,0,0-14-10.92,104.64,104.64,0,0,0-21.58-8.84,120.08,120.08,0,0,0-25.36-5.08A100.09,100.09,0,0,0,123,53.3h-.37c-.88,0-1.8,0-2.68.12l-3.05.19c-.68.08-1.36.14-2,.2-1.27.12-2.59.24-3.87.47-1.66.24-3.3.46-4.89.67l-7.33,1.36-2.33.55c-1.53.35-3.07.7-4.65,1l-2,.52C84.3,59.85,79.12,61.2,73.9,62.79c-3.81,1.07-7.5,2.21-11.41,3.43l-6.56,2L53.55,69c-5.37,1.73-10.92,3.52-16.83,5.59-1.4.51-2.81,1-4.3,1.5l-1.91.66a50,50,0,0,0-6.31,2.85,10.5,10.5,0,0,1-3.11,1.07l-.24,0c-.63.14-1.29.25-1.9.36l-.2,0-.94.22c4.73-6.46,9.28-12.41,13.83-18.1C37.54,55.84,43,49.4,48.31,43.54L52.6,38.9c1-1.06,2.09-2.15,3.1-3.2L57,34.38c1.52-1.46,3-3,4.46-4.38l3.24-2.92ZM1,100.4a2.16,2.16,0,0,0,1.55.23,5.41,5.41,0,0,0,2-1.06,22,22,0,0,0,3.73-3.63c.51-.63,1-1.29,1.48-2s.93-1.4,1.33-2.06.68-1.15,1-1.71l0-.08a15.12,15.12,0,0,0,1.58-.24,25.84,25.84,0,0,0,5-1.71l.46-.19c.74-.34,1.44-.7,2.12-1.06l.11-.06.86-.44c1-.44,1.88-.85,2.72-1.14C32,83,38.52,81.09,43.47,79.7l17.67-5.08c1.46-.41,2.93-.84,4.38-1.28.75-.24,1.53-.45,2.28-.65s1.34-.37,2-.57L72,71.46c.64-.2,1.3-.4,2-.57,1.44-.39,2.88-.8,4.28-1.21l.88-.26c.41-.13.79-.25,1.2-.35l2.14-.56c1.41-.39,2.84-.79,4.17-1.19l.65-.16c1.18-.3,2.4-.6,3.58-.92l1.36-.37c.85-.23,1.73-.48,2.58-.66l.19,0c1-.23,2.06-.48,3.14-.75,1.28-.32,2.61-.65,3.9-.92l1.28-.25.32-.07c.54-.11,1.08-.24,1.7-.38l1.57-.35.5-.1c1.39-.23,2.8-.47,4.21-.74l2-.39,4-.58,2-.22.86-.1c.39,0,.76-.1,1.14-.12l2.1-.16c.83-.08,1.67-.11,2.56-.14l1.41-.06A79.94,79.94,0,0,1,160,65.43l.38.16c3.5,1.39,7.12,2.82,10.89,4.54a95.55,95.55,0,0,1,12.2,6.55c3.24,2,7.45,5.6,9.06,10.82.09.28.29,1.11.54,2.12.59,2.42,1.06,4.32,1.31,4.94s.85,1.39,2.55,1a12.05,12.05,0,0,0,6.3-4.54c1.13-1.68,1.6-2.49,1.93-3.07l.39-.66.09-.15.09-.16.11-.2,0,0c.84-2.31-.08-7.63-.09-7.69a101.27,101.27,0,0,0-4.64-17.57,97.06,97.06,0,0,0-7.49-15.89,109,109,0,0,0-20.75-25.37c-2.42-2.26-5-4.31-7.31-6.07l-1.88-1.34-.58-.42c-.42-.3-.89-.64-1.38-.93l-1.26-.81c-.85-.55-1.74-1.13-2.64-1.61l-2-1.15c-.38-.21-.76-.4-1.2-.62l-.86-.43L153,6.49c-.44-.23-.88-.46-1.32-.65l-3.1-1.38-.6-.22-.35-.12L147.26,4c-.49-.16-1-.32-1.52-.46-1.42-.43-3-.78-4.31-1.09A113,113,0,0,0,123.49.13a108.46,108.46,0,0,0-17.36.52c-2.83.32-5.65.78-8.38,1.35A85.71,85.71,0,0,0,79.91,7.86c-2.13,1-4.23,2.09-6.28,3.27A89.72,89.72,0,0,0,58.54,22l-2.33,2.13c-.52.47-1,1-1.55,1.52l-.84.84-1.09,1.08c-1.19,1.18-2.42,2.4-3.57,3.66l-1.34,1.42c-1.08,1.13-2.19,2.29-3.23,3.5-.43.49-.88,1-1.33,1.48-1,1.16-2.14,2.37-3.16,3.6C34,48.33,28.26,55.69,22.46,63.78q-1,1.35-1.95,2.7a99.61,99.61,0,0,0-8.25,12.74,19,19,0,0,1-2.75,3.84v0c-.11.12-9.77,14.68-9.49,16a2,2,0,0,0,1,1.35"/></g></g></svg>